<?xml version="1.0" encoding="UTF-8" standalone="no"?>
<!DOCTYPE svg PUBLIC "-//W3C//DTD SVG 1.1//EN" "http://www.w3.org/Graphics/SVG/1.1/DTD/svg11.dtd">
<svg xmlns="http://www.w3.org/2000/svg" version="1.1" viewBox="0.00 0.00 1024.00 1024.00">
<g stroke-width="2.00" fill="none" stroke-linecap="butt">
<path stroke="#748b9d" vector-effect="non-scaling-stroke" d="
  M 491.63 198.23
  Q 444.78 226.71 398.20 254.90
  Q 390.24 259.71 381.04 265.20
  Q 323.47 299.56 265.73 333.52
  Q 253.30 340.83 250.38 343.84
  C 241.74 352.75 238.73 362.43 238.73 374.77
  Q 238.73 518.17 238.88 654.37
  Q 238.90 673.65 252.47 685.65
  Q 255.37 688.22 269.28 696.41
  Q 290.41 708.85 312.27 721.48
  Q 348.55 742.45 405.10 776.40
  Q 413.75 781.59 422.31 786.63
  Q 447.60 801.53 471.48 816.17
  C 477.66 819.97 485.13 823.94 491.79 828.10
  Q 498.05 832.01 503.35 833.63
  Q 516.00 837.49 529.31 831.06
  C 538.02 826.85 546.61 820.79 555.32 815.57
  C 578.75 801.52 602.27 787.75 625.76 773.53
  Q 670.31 746.57 718.14 718.31
  C 734.93 708.39 755.43 697.03 768.52 688.64
  Q 781.14 680.56 784.95 666.80
  Q 786.50 661.20 786.51 656.56
  Q 786.94 433.55 786.56 372.93
  C 786.47 357.86 779.73 344.62 766.46 336.83
  C 743.28 323.22 720.28 309.32 697.04 295.83
  Q 664.09 276.68 631.65 257.07
  C 599.98 237.92 568.44 219.31 536.78 199.78
  C 526.43 193.40 517.00 189.28 504.37 192.04
  Q 500.36 192.92 491.63 198.23"
/>
<path stroke="#8795a1" vector-effect="non-scaling-stroke" d="
  M 349.49 670.72
  C 381.84 690.06 414.38 709.09 446.62 728.60
  Q 465.89 740.26 485.35 751.56
  C 494.24 756.72 503.30 762.53 512.48 768.03
  A 1.80 1.80 0.0 0 0 514.42 767.97
  Q 516.03 766.87 517.62 765.91
  Q 539.85 752.51 560.22 740.22
  Q 636.76 694.04 706.56 652.02
  Q 714.21 647.42 722.54 642.30
  A 1.48 1.46 75.0 0 0 723.24 641.06
  Q 723.81 516.10 723.17 384.59
  Q 723.17 384.01 722.66 383.72
  C 705.77 374.18 689.30 363.83 672.60 353.97
  Q 613.40 319.04 554.15 283.58
  Q 537.36 273.54 523.00 265.00
  C 520.04 263.25 517.26 261.28 514.38 259.39
  Q 512.84 258.37 511.64 259.46
  Q 511.18 259.88 510.65 260.21
  Q 468.71 285.67 427.83 309.63
  Q 419.15 314.72 410.60 319.85
  Q 370.23 344.08 327.73 369.22
  Q 314.03 377.32 302.93 384.50
  A 1.49 1.49 0.0 0 0 302.25 385.75
  L 302.25 641.49
  A 1.85 1.85 0.0 0 0 303.14 643.07
  C 318.42 652.51 334.26 661.61 349.49 670.72"
/>
<path stroke="#8795a1" vector-effect="non-scaling-stroke" d="
  M 604.65 575.98
  C 605.38 590.50 597.96 603.44 585.97 611.10
  Q 565.81 623.99 530.40 644.54
  Q 522.61 649.06 513.19 655.34
  Q 512.81 655.59 512.43 655.36
  L 410.97 595.57
  A 0.92 0.89 -43.5 0 0 410.09 595.56
  Q 407.80 596.79 405.81 597.97
  Q 378.00 614.38 353.39 629.45
  Q 350.47 631.23 347.76 633.10
  A 0.42 0.42 0.0 0 0 347.79 633.81
  L 512.80 732.13
  A 0.97 0.97 0.0 0 0 513.80 732.13
  Q 542.27 714.91 570.90 697.86
  C 585.34 689.27 599.53 680.22 614.52 671.24
  Q 624.65 665.17 627.72 662.95
  Q 642.46 652.29 651.60 640.69
  Q 672.58 614.04 673.76 579.58
  Q 675.00 543.43 654.75 515.74
  C 642.25 498.63 623.17 485.54 602.03 481.60
  Q 593.50 480.01 587.25 480.00
  Q 519.52 479.86 455.77 479.74
  Q 444.68 479.72 439.89 478.22
  C 426.98 474.16 420.15 462.30 420.35 449.05
  C 420.58 434.40 428.44 422.75 440.38 414.83
  Q 444.73 411.94 449.42 409.19
  Q 481.32 390.45 512.42 371.48
  A 1.47 1.46 -45.7 0 1 513.91 371.46
  Q 534.42 383.22 554.91 395.61
  C 573.94 407.11 593.09 418.19 612.15 429.99
  A 0.42 0.41 -43.1 0 0 612.56 430.00
  Q 622.30 424.56 637.20 415.70
  Q 656.01 404.50 675.44 392.97
  A 0.70 0.70 0.0 0 0 675.44 391.77
  Q 599.79 346.28 523.97 301.02
  Q 518.69 297.87 513.38 294.15
  A 0.76 0.76 0.0 0 0 512.55 294.13
  Q 505.99 298.29 499.38 302.30
  Q 462.78 324.51 426.06 346.52
  C 403.88 359.82 380.78 372.22 366.75 394.91
  C 361.04 404.15 356.38 414.33 353.88 425.04
  C 349.92 442.01 349.18 459.42 352.82 476.48
  Q 359.26 506.61 381.68 527.16
  C 392.56 537.13 407.36 544.93 422.46 547.29
  Q 427.96 548.16 432.19 548.17
  Q 499.93 548.33 571.01 548.19
  Q 577.99 548.18 582.12 549.27
  C 594.60 552.56 604.00 563.12 604.65 575.98"
/>
</g>
<path fill="#d9ebf6" d="
  M 0.00 0.00
  L 1024.00 0.00
  L 1024.00 1024.00
  L 0.00 1024.00
  L 0.00 0.00
  Z
  M 491.63 198.23
  Q 444.78 226.71 398.20 254.90
  Q 390.24 259.71 381.04 265.20
  Q 323.47 299.56 265.73 333.52
  Q 253.30 340.83 250.38 343.84
  C 241.74 352.75 238.73 362.43 238.73 374.77
  Q 238.73 518.17 238.88 654.37
  Q 238.90 673.65 252.47 685.65
  Q 255.37 688.22 269.28 696.41
  Q 290.41 708.85 312.27 721.48
  Q 348.55 742.45 405.10 776.40
  Q 413.75 781.59 422.31 786.63
  Q 447.60 801.53 471.48 816.17
  C 477.66 819.97 485.13 823.94 491.79 828.10
  Q 498.05 832.01 503.35 833.63
  Q 516.00 837.49 529.31 831.06
  C 538.02 826.85 546.61 820.79 555.32 815.57
  C 578.75 801.52 602.27 787.75 625.76 773.53
  Q 670.31 746.57 718.14 718.31
  C 734.93 708.39 755.43 697.03 768.52 688.64
  Q 781.14 680.56 784.95 666.80
  Q 786.50 661.20 786.51 656.56
  Q 786.94 433.55 786.56 372.93
  C 786.47 357.86 779.73 344.62 766.46 336.83
  C 743.28 323.22 720.28 309.32 697.04 295.83
  Q 664.09 276.68 631.65 257.07
  C 599.98 237.92 568.44 219.31 536.78 199.78
  C 526.43 193.40 517.00 189.28 504.37 192.04
  Q 500.36 192.92 491.63 198.23
  Z"
/>
<path fill="#0e2a43" d="
  M 504.37 192.04
  C 517.00 189.28 526.43 193.40 536.78 199.78
  C 568.44 219.31 599.98 237.92 631.65 257.07
  Q 664.09 276.68 697.04 295.83
  C 720.28 309.32 743.28 323.22 766.46 336.83
  C 779.73 344.62 786.47 357.86 786.56 372.93
  Q 786.94 433.55 786.51 656.56
  Q 786.50 661.20 784.95 666.80
  Q 781.14 680.56 768.52 688.64
  C 755.43 697.03 734.93 708.39 718.14 718.31
  Q 670.31 746.57 625.76 773.53
  C 602.27 787.75 578.75 801.52 555.32 815.57
  C 546.61 820.79 538.02 826.85 529.31 831.06
  Q 516.00 837.49 503.35 833.63
  Q 498.05 832.01 491.79 828.10
  C 485.13 823.94 477.66 819.97 471.48 816.17
  Q 447.60 801.53 422.31 786.63
  Q 413.75 781.59 405.10 776.40
  Q 348.55 742.45 312.27 721.48
  Q 290.41 708.85 269.28 696.41
  Q 255.37 688.22 252.47 685.65
  Q 238.90 673.65 238.88 654.37
  Q 238.73 518.17 238.73 374.77
  C 238.73 362.43 241.74 352.75 250.38 343.84
  Q 253.30 340.83 265.73 333.52
  Q 323.47 299.56 381.04 265.20
  Q 390.24 259.71 398.20 254.90
  Q 444.78 226.71 491.63 198.23
  Q 500.36 192.92 504.37 192.04
  Z
  M 349.49 670.72
  C 381.84 690.06 414.38 709.09 446.62 728.60
  Q 465.89 740.26 485.35 751.56
  C 494.24 756.72 503.30 762.53 512.48 768.03
  A 1.80 1.80 0.0 0 0 514.42 767.97
  Q 516.03 766.87 517.62 765.91
  Q 539.85 752.51 560.22 740.22
  Q 636.76 694.04 706.56 652.02
  Q 714.21 647.42 722.54 642.30
  A 1.48 1.46 75.0 0 0 723.24 641.06
  Q 723.81 516.10 723.17 384.59
  Q 723.17 384.01 722.66 383.72
  C 705.77 374.18 689.30 363.83 672.60 353.97
  Q 613.40 319.04 554.15 283.58
  Q 537.36 273.54 523.00 265.00
  C 520.04 263.25 517.26 261.28 514.38 259.39
  Q 512.84 258.37 511.64 259.46
  Q 511.18 259.88 510.65 260.21
  Q 468.71 285.67 427.83 309.63
  Q 419.15 314.72 410.60 319.85
  Q 370.23 344.08 327.73 369.22
  Q 314.03 377.32 302.93 384.50
  A 1.49 1.49 0.0 0 0 302.25 385.75
  L 302.25 641.49
  A 1.85 1.85 0.0 0 0 303.14 643.07
  C 318.42 652.51 334.26 661.61 349.49 670.72
  Z"
/>
<path fill="#ffffff" d="
  M 349.49 670.72
  C 334.26 661.61 318.42 652.51 303.14 643.07
  A 1.85 1.85 0.0 0 1 302.25 641.49
  L 302.25 385.75
  A 1.49 1.49 0.0 0 1 302.93 384.50
  Q 314.03 377.32 327.73 369.22
  Q 370.23 344.08 410.60 319.85
  Q 419.15 314.72 427.83 309.63
  Q 468.71 285.67 510.65 260.21
  Q 511.18 259.88 511.64 259.46
  Q 512.84 258.37 514.38 259.39
  C 517.26 261.28 520.04 263.25 523.00 265.00
  Q 537.36 273.54 554.15 283.58
  Q 613.40 319.04 672.60 353.97
  C 689.30 363.83 705.77 374.18 722.66 383.72
  Q 723.17 384.01 723.17 384.59
  Q 723.81 516.10 723.24 641.06
  A 1.48 1.46 75.0 0 1 722.54 642.30
  Q 714.21 647.42 706.56 652.02
  Q 636.76 694.04 560.22 740.22
  Q 539.85 752.51 517.62 765.91
  Q 516.03 766.87 514.42 767.97
  A 1.80 1.80 0.0 0 1 512.48 768.03
  C 503.30 762.53 494.24 756.72 485.35 751.56
  Q 465.89 740.26 446.62 728.60
  C 414.38 709.09 381.84 690.06 349.49 670.72
  Z
  M 604.65 575.98
  C 605.38 590.50 597.96 603.44 585.97 611.10
  Q 565.81 623.99 530.40 644.54
  Q 522.61 649.06 513.19 655.34
  Q 512.81 655.59 512.43 655.36
  L 410.97 595.57
  A 0.92 0.89 -43.5 0 0 410.09 595.56
  Q 407.80 596.79 405.81 597.97
  Q 378.00 614.38 353.39 629.45
  Q 350.47 631.23 347.76 633.10
  A 0.42 0.42 0.0 0 0 347.79 633.81
  L 512.80 732.13
  A 0.97 0.97 0.0 0 0 513.80 732.13
  Q 542.27 714.91 570.90 697.86
  C 585.34 689.27 599.53 680.22 614.52 671.24
  Q 624.65 665.17 627.72 662.95
  Q 642.46 652.29 651.60 640.69
  Q 672.58 614.04 673.76 579.58
  Q 675.00 543.43 654.75 515.74
  C 642.25 498.63 623.17 485.54 602.03 481.60
  Q 593.50 480.01 587.25 480.00
  Q 519.52 479.86 455.77 479.74
  Q 444.68 479.72 439.89 478.22
  C 426.98 474.16 420.15 462.30 420.35 449.05
  C 420.58 434.40 428.44 422.75 440.38 414.83
  Q 444.73 411.94 449.42 409.19
  Q 481.32 390.45 512.42 371.48
  A 1.47 1.46 -45.7 0 1 513.91 371.46
  Q 534.42 383.22 554.91 395.61
  C 573.94 407.11 593.09 418.19 612.15 429.99
  A 0.42 0.41 -43.1 0 0 612.56 430.00
  Q 622.30 424.56 637.20 415.70
  Q 656.01 404.50 675.44 392.97
  A 0.70 0.70 0.0 0 0 675.44 391.77
  Q 599.79 346.28 523.97 301.02
  Q 518.69 297.87 513.38 294.15
  A 0.76 0.76 0.0 0 0 512.55 294.13
  Q 505.99 298.29 499.38 302.30
  Q 462.78 324.51 426.06 346.52
  C 403.88 359.82 380.78 372.22 366.75 394.91
  C 361.04 404.15 356.38 414.33 353.88 425.04
  C 349.92 442.01 349.18 459.42 352.82 476.48
  Q 359.26 506.61 381.68 527.16
  C 392.56 537.13 407.36 544.93 422.46 547.29
  Q 427.96 548.16 432.19 548.17
  Q 499.93 548.33 571.01 548.19
  Q 577.99 548.18 582.12 549.27
  C 594.60 552.56 604.00 563.12 604.65 575.98
  Z"
/>
<path fill="#0e2a43" d="
  M 604.65 575.98
  C 604.00 563.12 594.60 552.56 582.12 549.27
  Q 577.99 548.18 571.01 548.19
  Q 499.93 548.33 432.19 548.17
  Q 427.96 548.16 422.46 547.29
  C 407.36 544.93 392.56 537.13 381.68 527.16
  Q 359.26 506.61 352.82 476.48
  C 349.18 459.42 349.92 442.01 353.88 425.04
  C 356.38 414.33 361.04 404.15 366.75 394.91
  C 380.78 372.22 403.88 359.82 426.06 346.52
  Q 462.78 324.51 499.38 302.30
  Q 505.99 298.29 512.55 294.13
  A 0.76 0.76 0.0 0 1 513.38 294.15
  Q 518.69 297.87 523.97 301.02
  Q 599.79 346.28 675.44 391.77
  A 0.70 0.70 0.0 0 1 675.44 392.97
  Q 656.01 404.50 637.20 415.70
  Q 622.30 424.56 612.56 430.00
  A 0.42 0.41 -43.1 0 1 612.15 429.99
  C 593.09 418.19 573.94 407.11 554.91 395.61
  Q 534.42 383.22 513.91 371.46
  A 1.47 1.46 -45.7 0 0 512.42 371.48
  Q 481.32 390.45 449.42 409.19
  Q 444.73 411.94 440.38 414.83
  C 428.44 422.75 420.58 434.40 420.35 449.05
  C 420.15 462.30 426.98 474.16 439.89 478.22
  Q 444.68 479.72 455.77 479.74
  Q 519.52 479.86 587.25 480.00
  Q 593.50 480.01 602.03 481.60
  C 623.17 485.54 642.25 498.63 654.75 515.74
  Q 675.00 543.43 673.76 579.58
  Q 672.58 614.04 651.60 640.69
  Q 642.46 652.29 627.72 662.95
  Q 624.65 665.17 614.52 671.24
  C 599.53 680.22 585.34 689.27 570.90 697.86
  Q 542.27 714.91 513.80 732.13
  A 0.97 0.97 0.0 0 1 512.80 732.13
  L 347.79 633.81
  A 0.42 0.42 0.0 0 1 347.76 633.10
  Q 350.47 631.23 353.39 629.45
  Q 378.00 614.38 405.81 597.97
  Q 407.80 596.79 410.09 595.56
  A 0.92 0.89 -43.5 0 1 410.97 595.57
  L 512.43 655.36
  Q 512.81 655.59 513.19 655.34
  Q 522.61 649.06 530.40 644.54
  Q 565.81 623.99 585.97 611.10
  C 597.96 603.44 605.38 590.50 604.65 575.98
  Z"
/>
</svg>
